<?xml version="1.0" encoding="utf-8"?>
<!-- Generator: Adobe Illustrator 24.0.1, SVG Export Plug-In . SVG Version: 6.00 Build 0)  -->
<svg version="1.1" id="Layer_1" xmlns="http://www.w3.org/2000/svg" xmlns:xlink="http://www.w3.org/1999/xlink" x="0px" y="0px"
	 viewBox="0 0 512 512" style="enable-background:new 0 0 512 512;" xml:space="preserve">
<style type="text/css">
	.st0{fill:#FFFFFF;}
</style>
<path class="st0" d="M59.7,136.5H8.5c-4.7,0-8.5-3.8-8.5-8.5V8.5C0,3.8,3.8,0,8.5,0H128c4.7,0,8.5,3.8,8.5,8.5v51.2
	c0,4.7-3.8,8.5-8.5,8.5H68.3V128C68.3,132.7,64.4,136.5,59.7,136.5z M17.1,119.5h34.1V59.7c0-4.7,3.8-8.5,8.5-8.5h59.7V17.1H17.1
	V119.5z"/>
<path class="st0" d="M128,512H8.5c-4.7,0-8.5-3.8-8.5-8.5V384c0-4.7,3.8-8.5,8.5-8.5h51.2c4.7,0,8.5,3.8,8.5,8.5v59.7H128
	c4.7,0,8.5,3.8,8.5,8.5v51.2C136.5,508.2,132.7,512,128,512z M17.1,494.9h102.4v-34.1H59.7c-4.7,0-8.5-3.8-8.5-8.5v-59.7H17.1V494.9
	z"/>
<path class="st0" d="M503.5,136.5h-51.2c-4.7,0-8.5-3.8-8.5-8.5V68.3H384c-4.7,0-8.5-3.8-8.5-8.5V8.5c0-4.7,3.8-8.5,8.5-8.5h119.5
	c4.7,0,8.5,3.8,8.5,8.5V128C512,132.7,508.2,136.5,503.5,136.5z M460.8,119.5h34.1V17.1H392.5v34.1h59.7c4.7,0,8.5,3.8,8.5,8.5
	V119.5z"/>
<path class="st0" d="M503.5,512H384c-4.7,0-8.5-3.8-8.5-8.5v-51.2c0-4.7,3.8-8.5,8.5-8.5h59.7V384c0-4.7,3.8-8.5,8.5-8.5h51.2
	c4.7,0,8.5,3.8,8.5,8.5v119.5C512,508.2,508.2,512,503.5,512z M392.5,494.9h102.4V392.5h-34.1v59.7c0,4.7-3.8,8.5-8.5,8.5h-59.7
	V494.9z"/>
<path class="st0" d="M392.5,401.1H119.5c-4.7,0-8.5-3.8-8.5-8.5V119.5c0-4.7,3.8-8.5,8.5-8.5h273.1c4.7,0,8.5,3.8,8.5,8.5v273.1
	C401.1,397.2,397.2,401.1,392.5,401.1z M128,384h256V128H128V384z"/>
<path class="st0" d="M503.5,264.5H8.5c-4.7,0-8.5-3.8-8.5-8.5c0-4.7,3.8-8.5,8.5-8.5h494.9c4.7,0,8.5,3.8,8.5,8.5
	C512,260.7,508.2,264.5,503.5,264.5z"/>
</svg>
