<?xml version="1.0" encoding="utf-8"?>
<!-- Generator: Adobe Illustrator 24.0.1, SVG Export Plug-In . SVG Version: 6.00 Build 0)  -->
<svg version="1.1" id="Layer_1" xmlns="http://www.w3.org/2000/svg" xmlns:xlink="http://www.w3.org/1999/xlink" x="0px" y="0px"
	 viewBox="0 0 80 80" style="enable-background:new 0 0 80 80;" xml:space="preserve">
<style type="text/css">
	.st0{fill:url(#SVGID_1_);}
	.st1{display:none;}
	.st2{display:inline;}
	.st3{enable-background:new    ;}
	.st4{fill:#098CB1;}
	.st5{fill:url(#SVGID_2_);}
	.st6{display:none;opacity:0.64;}
	.st7{display:none;fill:url(#SVGID_3_);}
	.st8{fill:none;stroke:#098CB1;stroke-linecap:round;stroke-linejoin:round;stroke-miterlimit:10;}
	.st9{fill:none;stroke:#098CB1;stroke-width:2;stroke-linecap:round;stroke-linejoin:round;stroke-miterlimit:10;}
	.st10{fill:#FFFFFF;}
	.st11{fill:url(#SVGID_4_);}
	.st12{fill:url(#SVGID_5_);}
	.st13{fill:url(#SVGID_6_);}
	.st14{fill:url(#SVGID_7_);}
	.st15{fill:url(#SVGID_8_);}
	.st16{fill:url(#SVGID_9_);}
	.st17{fill:url(#SVGID_10_);}
	.st18{fill:url(#SVGID_11_);}
	.st19{fill:url(#SVGID_12_);}
	.st20{fill:url(#SVGID_13_);}
	.st21{fill:url(#SVGID_14_);}
	.st22{fill:url(#SVGID_15_);}
	.st23{fill:url(#SVGID_16_);}
	.st24{fill:url(#SVGID_17_);}
	.st25{fill:url(#SVGID_18_);}
	.st26{fill:url(#SVGID_19_);}
	.st27{fill:url(#SVGID_20_);}
	.st28{fill:url(#SVGID_21_);}
	.st29{fill:url(#SVGID_22_);}
	.st30{fill:url(#SVGID_23_);}
	.st31{fill:url(#SVGID_24_);}
	.st32{fill:url(#SVGID_25_);}
	.st33{fill:url(#SVGID_26_);}
	.st34{fill:none;stroke:#FFFFFF;stroke-miterlimit:10;}
	.st35{fill:#0A8BB0;}
	.st36{fill:#FBF6EE;}
	.st37{fill:#FBFBFB;}
	.st38{fill:#34495E;}
	.st39{fill:#6EB02C;}
	.st40{fill:#83D134;}
	.st41{fill:#2C3E50;}
	.st42{opacity:0.2;fill:#FCFFA3;}
	.st43{fill:#55555F;}
	.st44{fill:#3E3E45;}
	.st45{fill:#FFDA45;}
	.st46{fill:#FFAE00;}
	.st47{opacity:0.3;fill:url(#SVGID_27_);}
	.st48{opacity:0.3;fill:url(#SVGID_28_);}
	.st49{opacity:0.7;}
	.st50{fill:#F1C40F;}
	.st51{fill:#F39C12;}
	.st52{fill:#E67E22;}
	.st53{fill:#B6BBBF;}
	.st54{fill:#CED4D9;}
	.st55{fill:#ECF0F1;}
	.st56{fill:#CBD1D6;}
	.st57{fill:#7F8C8D;}
	.st58{fill:#4A6785;}
	.st59{fill:#484F4F;}
	.st60{fill:#D35400;}
	.st61{fill:#BDC3C7;}
	.st62{fill:#C9CFD4;}
	.st63{opacity:0.3;fill:#FFFFFF;}
	.st64{fill:#95A5A6;}
	.st65{fill:#727F80;}
	.st66{fill:#ACBEBF;}
	.st67{fill:#D9DDDE;}
	.st68{fill:#5E6869;}
	.st69{opacity:0.5;fill:#2C3E50;}
	.st70{fill:#537596;}
	.st71{opacity:0.1;fill:#2C3E50;}
	.st72{fill:#151D26;}
	.st73{fill:#27AE60;}
	.st74{fill:#2ECC71;}
	.st75{fill:#F57F65;}
	.st76{fill:#AB5847;}
	.st77{fill:#E8D0AE;}
	.st78{fill:#CFB99B;}
	.st79{fill:#E0C9A8;}
	.st80{fill:#FF9D00;}
	.st81{fill:#DE6400;}
	.st82{fill:#FAC800;}
	.st83{fill:#FAF2D2;}
	.st84{fill:#20D6CA;}
	.st85{fill:#51FCEA;}
	.st86{fill:#1AB0A6;}
	.st87{fill:#9CFFF5;}
	.st88{opacity:0.3;fill:#55555F;}
	.st89{fill:url(#SVGID_29_);}
	.st90{fill:#57C5CF;}
	.st91{fill:#020202;}
	.st92{fill:#56C4CF;}
	.st93{clip-path:url(#SVGID_31_);}
	.st94{fill:#EBEBEB;}
	.st95{fill:#7D6CC4;}
	.st96{fill:#282828;}
	.st97{fill:#3D3D3D;}
	.st98{fill:#AFAFAF;}
	.st99{fill:#BFBFBF;}
	.st100{fill:#D6D6D6;}
	.st101{fill:#AAAAAA;}
	.st102{fill:#968ADD;}
	.st103{fill:#777777;}
	.st104{fill:#919191;}
	.st105{fill:#BCBCBC;}
	.st106{fill:#828282;}
	.st107{fill:#4F4F4F;}
	.st108{fill:#E02B45;}
	.st109{fill:#B7293E;}
	.st110{fill:#991C3A;}
	.st111{fill:#F34B5D;}
	.st112{fill:#FF526B;}
	.st113{opacity:0.55;fill:url(#SVGID_32_);}
	.st114{opacity:0.55;fill:url(#SVGID_33_);}
	.st115{opacity:0.55;fill:url(#SVGID_34_);}
	.st116{opacity:0.55;fill:url(#SVGID_35_);}
	.st117{fill:#EAEAEA;}
	.st118{fill:#DDDDDD;}
	.st119{opacity:0.55;fill:url(#SVGID_36_);}
	.st120{fill:#6B6B6B;}
	.st121{clip-path:url(#SVGID_38_);fill:#D1D1D1;}
	.st122{clip-path:url(#SVGID_38_);fill:#BABABA;}
	.st123{clip-path:url(#SVGID_38_);}
	.st124{fill:#BABABA;}
	.st125{fill:#999999;}
	.st126{fill:#D1D1D1;}
	.st127{fill:#CECECE;}
	.st128{opacity:0.56;fill:#AAAAAA;}
	.st129{fill:#E52C50;}
	.st130{fill:#EF3F69;}
	.st131{opacity:0.62;fill:url(#SVGID_39_);}
	.st132{fill:#FFBA94;}
	.st133{fill:#FCAF88;}
	.st134{fill:#F2618B;}
	.st135{fill:#FFE0B6;}
	.st136{fill:#F7CC9A;}
	.st137{fill:#FCD2A9;}
	.st138{fill:#7A7B7C;}
	.st139{fill:#666666;}
	.st140{fill:#4C4C4C;}
	.st141{fill:#1D2223;}
	.st142{fill:#FFB38D;}
	.st143{fill:url(#SVGID_40_);}
	.st144{opacity:0.68;fill:#BCBCBC;}
	.st145{fill:#C2D6FF;}
	.st146{fill:#101621;}
	.st147{fill:#F29D7E;}
	.st148{opacity:0.62;fill:url(#SVGID_41_);}
	.st149{fill:#565656;}
	.st150{fill:url(#SVGID_42_);}
	.st151{fill:url(#SVGID_43_);}
	.st152{fill:url(#SVGID_44_);}
	.st153{fill:#FCA286;}
	.st154{fill:#352D29;}
	.st155{fill:#4C3116;}
	.st156{fill:#35200D;}
	.st157{fill:#FF806D;}
	.st158{fill:#1C1B1A;}
	.st159{fill:#D8D8D8;}
	.st160{opacity:0.83;fill:#020202;}
	.st161{fill-rule:evenodd;clip-rule:evenodd;fill:#FFFFFF;}
</style>
<g>
	<path class="st10" d="M40,70.2c-0.5,0-1-0.4-1-1V10.7c0-0.5,0.4-1,1-1s1,0.4,1,1v58.5C41,69.8,40.5,70.2,40,70.2z"/>
	<path class="st10" d="M69.3,41H10.7c-0.5,0-1-0.4-1-1s0.4-1,1-1h58.5c0.5,0,1,0.4,1,1S69.8,41,69.3,41z"/>
	<path class="st10" d="M40,61.7C28,61.7,18.3,52,18.3,40c0-12,9.7-21.7,21.7-21.7c12,0,21.7,9.7,21.7,21.7c0,2.5-0.4,4.9-1.2,7.2
		c-0.2,0.5-0.7,0.8-1.2,0.6s-0.8-0.7-0.6-1.2l0,0c0.7-2.1,1.1-4.3,1.1-6.5c0-10.9-8.8-19.7-19.7-19.7c-10.9,0-19.7,8.8-19.7,19.7
		c0,10.9,8.8,19.7,19.7,19.7c2.7,0,5.4-0.6,7.9-1.6c0.5-0.2,1.1,0,1.3,0.5c0.2,0.5,0,1-0.5,1.2C45.9,61.1,43,61.7,40,61.7z"/>
	<path class="st10" d="M54.1,56.1c-0.5,0-1-0.4-1-1c0-0.3,0.1-0.5,0.3-0.7c0.7-0.6,1.3-1.3,1.8-2c0.3-0.4,0.9-0.5,1.4-0.2
		c0.4,0.3,0.5,0.9,0.2,1.4c0,0,0,0,0,0c-0.6,0.8-1.3,1.5-2,2.2C54.6,56,54.3,56.1,54.1,56.1z"/>
	<path class="st10" d="M40,54.8c-8.2,0-14.8-6.6-14.8-14.8S31.8,25.2,40,25.2S54.8,31.8,54.8,40C54.8,48.2,48.2,54.8,40,54.8z
		 M40,27.2c-7.1,0-12.8,5.7-12.8,12.8S32.9,52.8,40,52.8S52.8,47.1,52.8,40C52.8,32.9,47.1,27.2,40,27.2z"/>
	<path class="st10" d="M73.1,24.4c-0.5,0-1-0.4-1-1V7.8H56.6c-0.5,0-1-0.4-1-1s0.4-1,1-1h16.5c0.5,0,1,0.4,1,1v16.5
		C74.1,23.9,73.7,24.4,73.1,24.4z"/>
	<path class="st10" d="M6.9,24.4c-0.5,0-1-0.4-1-1V6.9c0-0.5,0.4-1,1-1h16.5c0.5,0,1,0.4,1,1s-0.4,1-1,1H7.8v15.5
		C7.8,23.9,7.4,24.4,6.9,24.4z"/>
	<path class="st10" d="M73.1,74.1H56.6c-0.5,0-1-0.4-1-1s0.4-1,1-1h15.5V56.6c0-0.5,0.4-1,1-1s1,0.4,1,1v16.5
		C74.1,73.7,73.7,74.1,73.1,74.1z"/>
	<path class="st10" d="M23.4,74.1H6.9c-0.5,0-1-0.4-1-1V56.6c0-0.5,0.4-1,1-1s1,0.4,1,1v15.5h15.5c0.5,0,1,0.4,1,1
		S23.9,74.1,23.4,74.1z"/>
</g>
</svg>
