<?xml version="1.0" encoding="utf-8"?>
<!-- Generator: Adobe Illustrator 24.0.1, SVG Export Plug-In . SVG Version: 6.00 Build 0)  -->
<svg version="1.1" id="Layer_1" xmlns="http://www.w3.org/2000/svg" xmlns:xlink="http://www.w3.org/1999/xlink" x="0px" y="0px"
	 viewBox="0 0 80 80" style="enable-background:new 0 0 80 80;" xml:space="preserve">
<style type="text/css">
	.st0{fill:url(#SVGID_1_);}
	.st1{display:none;}
	.st2{display:inline;}
	.st3{enable-background:new    ;}
	.st4{fill:#098CB1;}
	.st5{fill:url(#SVGID_2_);}
	.st6{display:none;opacity:0.64;}
	.st7{display:none;fill:url(#SVGID_3_);}
	.st8{fill:none;stroke:#098CB1;stroke-linecap:round;stroke-linejoin:round;stroke-miterlimit:10;}
	.st9{fill:none;stroke:#098CB1;stroke-width:2;stroke-linecap:round;stroke-linejoin:round;stroke-miterlimit:10;}
	.st10{fill:#FFFFFF;}
	.st11{fill:url(#SVGID_4_);}
	.st12{fill:url(#SVGID_5_);}
	.st13{fill:url(#SVGID_6_);}
	.st14{fill:url(#SVGID_7_);}
	.st15{fill:url(#SVGID_8_);}
	.st16{fill:url(#SVGID_9_);}
	.st17{fill:url(#SVGID_10_);}
	.st18{fill:url(#SVGID_11_);}
	.st19{fill:url(#SVGID_12_);}
	.st20{fill:url(#SVGID_13_);}
	.st21{fill:url(#SVGID_14_);}
	.st22{fill:url(#SVGID_15_);}
	.st23{fill:url(#SVGID_16_);}
	.st24{fill:url(#SVGID_17_);}
	.st25{fill:url(#SVGID_18_);}
	.st26{fill:url(#SVGID_19_);}
	.st27{fill:url(#SVGID_20_);}
	.st28{fill:url(#SVGID_21_);}
	.st29{fill:url(#SVGID_22_);}
	.st30{fill:url(#SVGID_23_);}
	.st31{fill:url(#SVGID_24_);}
	.st32{fill:url(#SVGID_25_);}
	.st33{fill:url(#SVGID_26_);}
	.st34{fill:none;stroke:#FFFFFF;stroke-miterlimit:10;}
	.st35{fill:#0A8BB0;}
	.st36{fill:#FBF6EE;}
	.st37{fill:#FBFBFB;}
	.st38{fill:#34495E;}
	.st39{fill:#6EB02C;}
	.st40{fill:#83D134;}
	.st41{fill:#2C3E50;}
	.st42{opacity:0.2;fill:#FCFFA3;}
	.st43{fill:#55555F;}
	.st44{fill:#3E3E45;}
	.st45{fill:#FFDA45;}
	.st46{fill:#FFAE00;}
	.st47{opacity:0.3;fill:url(#SVGID_27_);}
	.st48{opacity:0.3;fill:url(#SVGID_28_);}
	.st49{opacity:0.7;}
	.st50{fill:#F1C40F;}
	.st51{fill:#F39C12;}
	.st52{fill:#E67E22;}
	.st53{fill:#B6BBBF;}
	.st54{fill:#CED4D9;}
	.st55{fill:#ECF0F1;}
	.st56{fill:#CBD1D6;}
	.st57{fill:#7F8C8D;}
	.st58{fill:#4A6785;}
	.st59{fill:#484F4F;}
	.st60{fill:#D35400;}
	.st61{fill:#BDC3C7;}
	.st62{fill:#C9CFD4;}
	.st63{opacity:0.3;fill:#FFFFFF;}
	.st64{fill:#95A5A6;}
	.st65{fill:#727F80;}
	.st66{fill:#ACBEBF;}
	.st67{fill:#D9DDDE;}
	.st68{fill:#5E6869;}
	.st69{opacity:0.5;fill:#2C3E50;}
	.st70{fill:#537596;}
	.st71{opacity:0.1;fill:#2C3E50;}
	.st72{fill:#151D26;}
	.st73{fill:#27AE60;}
	.st74{fill:#2ECC71;}
	.st75{fill:#F57F65;}
	.st76{fill:#AB5847;}
	.st77{fill:#E8D0AE;}
	.st78{fill:#CFB99B;}
	.st79{fill:#E0C9A8;}
	.st80{fill:#FF9D00;}
	.st81{fill:#DE6400;}
	.st82{fill:#FAC800;}
	.st83{fill:#FAF2D2;}
	.st84{fill:#20D6CA;}
	.st85{fill:#51FCEA;}
	.st86{fill:#1AB0A6;}
	.st87{fill:#9CFFF5;}
	.st88{opacity:0.3;fill:#55555F;}
	.st89{fill:url(#SVGID_29_);}
	.st90{fill:#57C5CF;}
	.st91{fill:#020202;}
	.st92{fill:#56C4CF;}
	.st93{clip-path:url(#SVGID_31_);}
	.st94{fill:#EBEBEB;}
	.st95{fill:#7D6CC4;}
	.st96{fill:#282828;}
	.st97{fill:#3D3D3D;}
	.st98{fill:#AFAFAF;}
	.st99{fill:#BFBFBF;}
	.st100{fill:#D6D6D6;}
	.st101{fill:#AAAAAA;}
	.st102{fill:#968ADD;}
	.st103{fill:#777777;}
	.st104{fill:#919191;}
	.st105{fill:#BCBCBC;}
	.st106{fill:#828282;}
	.st107{fill:#4F4F4F;}
	.st108{fill:#E02B45;}
	.st109{fill:#B7293E;}
	.st110{fill:#991C3A;}
	.st111{fill:#F34B5D;}
	.st112{fill:#FF526B;}
	.st113{opacity:0.55;fill:url(#SVGID_32_);}
	.st114{opacity:0.55;fill:url(#SVGID_33_);}
	.st115{opacity:0.55;fill:url(#SVGID_34_);}
	.st116{opacity:0.55;fill:url(#SVGID_35_);}
	.st117{fill:#EAEAEA;}
	.st118{fill:#DDDDDD;}
	.st119{opacity:0.55;fill:url(#SVGID_36_);}
	.st120{fill:#6B6B6B;}
	.st121{clip-path:url(#SVGID_38_);fill:#D1D1D1;}
	.st122{clip-path:url(#SVGID_38_);fill:#BABABA;}
	.st123{clip-path:url(#SVGID_38_);}
	.st124{fill:#BABABA;}
	.st125{fill:#999999;}
	.st126{fill:#D1D1D1;}
	.st127{fill:#CECECE;}
	.st128{opacity:0.56;fill:#AAAAAA;}
	.st129{fill:#E52C50;}
	.st130{fill:#EF3F69;}
	.st131{opacity:0.62;fill:url(#SVGID_39_);}
	.st132{fill:#FFBA94;}
	.st133{fill:#FCAF88;}
	.st134{fill:#F2618B;}
	.st135{fill:#FFE0B6;}
	.st136{fill:#F7CC9A;}
	.st137{fill:#FCD2A9;}
	.st138{fill:#7A7B7C;}
	.st139{fill:#666666;}
	.st140{fill:#4C4C4C;}
	.st141{fill:#1D2223;}
	.st142{fill:#FFB38D;}
	.st143{fill:url(#SVGID_40_);}
	.st144{opacity:0.68;fill:#BCBCBC;}
	.st145{fill:#C2D6FF;}
	.st146{fill:#101621;}
	.st147{fill:#F29D7E;}
	.st148{opacity:0.62;fill:url(#SVGID_41_);}
	.st149{fill:#565656;}
	.st150{fill:url(#SVGID_42_);}
	.st151{fill:url(#SVGID_43_);}
	.st152{fill:url(#SVGID_44_);}
	.st153{fill:#FCA286;}
	.st154{fill:#352D29;}
	.st155{fill:#4C3116;}
	.st156{fill:#35200D;}
	.st157{fill:#FF806D;}
	.st158{fill:#1C1B1A;}
	.st159{fill:#D8D8D8;}
	.st160{opacity:0.83;fill:#020202;}
	.st161{fill-rule:evenodd;clip-rule:evenodd;fill:#FFFFFF;}
</style>
<g>
	<path class="st161" d="M39.5,8.8c-0.2,0.1-0.4,0.3-0.4,0.6C39,9.7,39,12.9,39,17.7v7.9l-0.4,0.2c-0.2,0.1-0.5,0.3-0.7,0.5
		c-0.3,0.3-2.1,4.2-3.8,8.3L33.9,35l-1-0.8c-1.1-0.8-1.7-1-2.4-0.9c-0.9,0.2-1,0.4-7,12.4l-5.8,11.7L16.8,58
		c-1.4,0.9-2.2,1.5-2.8,2.3c-0.3,0.4-1.5,2.6-2.7,4.9l-2.2,4.2l-1,0.1c-0.8,0.1-1,0.1-1.3,0.4c-0.3,0.4-0.3,0.9,0.1,1.3l0.3,0.3H40
		h32.8l0.3-0.3c0.4-0.4,0.4-0.9,0-1.3c-0.3-0.3-0.4-0.3-1.3-0.3l-1,0l-7.3-11c-4-6-7.5-11.2-7.8-11.5s-0.7-0.6-1-0.7
		C54,46,52.9,46,52.3,46.4l-0.5,0.3l-4.6-10c-2.5-5.6-4.7-10.1-4.9-10.4c-0.2-0.2-0.6-0.5-0.8-0.6L41,25.5v-3.8v-3.8h4.4
		c4,0,4.4,0,4.6-0.2c0.6-0.5,0.5-0.8-0.5-2.3c-0.5-0.8-0.9-1.5-0.9-1.6c0-0.1,0.4-0.8,0.9-1.5c0.5-0.8,0.9-1.5,0.9-1.5
		c0-0.3-0.4-0.9-0.6-1c-0.1,0-2.2-0.1-4.6-0.1H41l-0.1-0.4c-0.1-0.2-0.2-0.4-0.4-0.5C40.1,8.6,39.9,8.6,39.5,8.8z M47,12.5
		c-0.4,0.6-0.6,1-0.6,1.3s0.2,0.7,0.6,1.3l0.6,0.9h-3.3H41v-2.2v-2.2h3.3h3.3L47,12.5z M40.8,27.6c0.3,0.3,6.8,14.4,6.8,14.7
		c0,0.2-0.9,1-1.3,1.2c-0.4,0.2-0.8,0.1-1.5-0.5c-0.8-0.7-1.3-0.8-2.4-0.8c-1,0.1-1.7,0.5-2.1,1.2c-0.2,0.2-0.7,1.4-1.1,2.5
		c-0.5,1.1-1,2.1-1.1,2.3c-0.3,0.3-0.8,0.4-1.2,0.2c-0.1-0.1-1.1-1.4-2.2-2.8l-2-2.7l0.2-0.6c0.2-0.6,0.2-0.6-0.1-1
		c-0.4-0.5-1.1-0.6-1.4-0.1c-0.2,0.2-1.1,2.3-2.2,4.8c-1.1,2.5-2.1,4.8-2.4,5.2c-0.2,0.4-0.7,0.9-1.1,1.2c-0.6,0.5-4.8,3.2-4.8,3.1
		c0,0,9.8-19.9,10-20c0,0,0.5,0.3,1.1,0.8l1,0.8l-0.2,0.6c-0.2,0.6-0.2,0.6,0.1,1c0.4,0.5,1.1,0.5,1.4,0.2c0.1-0.2,1.3-2.6,2.5-5.5
		c1.2-2.9,2.4-5.4,2.5-5.6c0.2-0.2,0.4-0.3,0.7-0.3C40.4,27.3,40.6,27.4,40.8,27.6z M43.6,44.6c0.8,0.8,2,1.2,3,0.9
		c0.3-0.1,0.8-0.4,1.2-0.7s0.7-0.5,0.7-0.5c0,0,0.5,1,1,2.1l0.9,2l-0.4,0.7c-0.3,0.6-0.4,0.7-0.2,1c0.2,0.5,0.7,0.8,1.2,0.7
		c0.2-0.1,0.5-0.3,0.8-0.9c0.9-1.5,1.2-1.8,1.6-1.9c0.3-0.1,0.5,0,0.7,0.1c0.2,0.1,3.5,4.9,7.3,10.7l7,10.5l-10.7,0
		c-5.9,0-15.4,0-21.3,0l-10.6,0l1.8-1.6c2.1-1.9,3.4-2.7,4.8-3.3c0.5-0.2,3.1-1.2,5.7-2.1c2.6-0.9,5.1-1.8,5.4-2c1-0.4,2-1.2,2.7-2
		c0.8-0.9,3-4.4,3-4.9c0.1-0.8-1-1.3-1.6-0.7c-0.2,0.2-0.8,1.1-1.4,2.1c-1.2,2-2.1,2.9-3.2,3.5c-0.4,0.2-3.1,1.3-6,2.3s-5.6,2-6,2.2
		c-1.4,0.7-2.7,1.6-5.6,4.1l-2.8,2.4H17h-5.8l0.5-1c0.3-0.5,1.2-2.2,2.1-3.9c1.1-2.1,1.7-3.1,2.1-3.5c0.3-0.3,2.7-1.9,5.6-3.7
		c6.9-4.3,6.7-4.1,9-9.6c0.6-1.5,1.2-2.7,1.2-2.8c0.1-0.1,0.8,0.9,1.7,2.1c1.6,2.2,2.1,2.8,2.9,3.1c1.1,0.4,2.7,0,3.4-1
		c0.2-0.3,0.7-1.4,1.2-2.5c0.5-1.1,1-2.1,1.1-2.3C42.4,44,43.1,44.1,43.6,44.6z"/>
</g>
</svg>
