<?xml version="1.0" encoding="utf-8"?>
<!-- Generator: Adobe Illustrator 24.0.1, SVG Export Plug-In . SVG Version: 6.00 Build 0)  -->
<svg version="1.1" id="Capa_1" xmlns="http://www.w3.org/2000/svg" xmlns:xlink="http://www.w3.org/1999/xlink" x="0px" y="0px"
	 viewBox="0 0 512 512" style="enable-background:new 0 0 512 512;" xml:space="preserve">
<style type="text/css">
	.st0{fill:#FFFFFF;}
</style>
<path class="st0" d="M216.1,132.4c4.1,0,7.5-3.4,7.5-7.5v-8.7c0-4.1-3.4-7.5-7.5-7.5s-7.5,3.4-7.5,7.5v8.7
	C208.6,129.1,212,132.4,216.1,132.4z M111.3,132.4c4.1,0,7.5-3.4,7.5-7.5v-8.7c0-4.1-3.4-7.5-7.5-7.5s-7.5,3.4-7.5,7.5v8.7
	C103.8,129.1,107.2,132.4,111.3,132.4z M99.6,186.6h128.4c4.1,0,7.5-3.4,7.5-7.5s-3.4-7.5-7.5-7.5H99.6c-4.1,0-7.5,3.4-7.5,7.5
	S95.4,186.6,99.6,186.6z M163.7,139.1c7.5,0,14.6-3.2,19.5-8.9c2.7-3.1,2.4-7.9-0.7-10.6c-3.1-2.7-7.9-2.4-10.6,0.7
	c-2.1,2.4-5,3.7-8.2,3.7c-3.1,0-6.1-1.4-8.2-3.7c-2.7-3.1-7.5-3.4-10.6-0.7c-3.1,2.7-3.4,7.5-0.7,10.6
	C149.2,135.9,156.3,139.1,163.7,139.1L163.7,139.1z M99.6,227.3h128.4c4.1,0,7.5-3.4,7.5-7.5s-3.4-7.5-7.5-7.5H99.6
	c-4.1,0-7.5,3.4-7.5,7.5S95.4,227.3,99.6,227.3z M445.2,27.2h-10.7c-4.1,0-7.5,3.4-7.5,7.5s3.4,7.5,7.5,7.5h10.7
	c28.5,0,51.8,23.2,51.8,51.8v202h-25.5V101.5c0-18.6-15.1-33.7-33.7-33.7H74.3c-18.6,0-33.7,15.1-33.7,33.7V296H15V94
	c0-28.6,23.2-51.8,51.8-51.8h332.4c4.1,0,7.5-3.4,7.5-7.5s-3.4-7.5-7.5-7.5H66.8C30,27.2,0,57.2,0,94v226.1
	c0,32.5,23.2,60.1,55.1,65.8c0.4,0.1,0.9,0.1,1.3,0.1c3.6,0,6.7-2.6,7.4-6.2c0.7-4.1-2-8-6.1-8.7C33,366.7,15,345.3,15,320.1V311
	h482v9.1c0,28.5-23.2,51.8-51.8,51.8H91.6c-4.1,0-7.5,3.4-7.5,7.5s3.4,7.5,7.5,7.5h89.7l-4,43.4h-3.3c-14.1,0-26.8,9.5-30.8,23
	l-1.7,5.9c-1.8,6.1-0.6,12.5,3.2,17.6s9.6,8,16,8h190.6c6.3,0,12.2-2.9,16-8s5-11.5,3.2-17.6l-1.7-5.9c-4-13.6-16.6-23-30.8-23h-3.3
	l-4-43.4h114.5c36.8,0,66.8-30,66.8-66.8V94C512,57.2,482,27.2,445.2,27.2L445.2,27.2z M268.1,296H55.5V101.5
	c0-10.3,8.4-18.7,18.7-18.7h193.9V296z M456.5,296H283.1V82.8h154.6c10.3,0,18.7,8.4,18.7,18.7L456.5,296L456.5,296z M196.4,386.9
	h119.2l4,43.4H192.4L196.4,386.9z M337.9,445.3c7.5,0,14.3,5,16.4,12.3l1.7,5.9c0.6,2.1-0.2,3.6-0.8,4.3s-1.8,2-4,2H160.7
	c-2.1,0-3.4-1.2-4-2c-0.9-1.3-1.2-2.8-0.8-4.4l1.7-5.9c2.1-7.2,8.9-12.3,16.4-12.3h10.1h0h0h143.6h0c0,0,0,0,0,0H337.9z
	 M270.4,341.5c0-7.9-6.4-14.4-14.4-14.4s-14.4,6.4-14.4,14.4s6.4,14.4,14.4,14.4C263.9,355.8,270.4,349.4,270.4,341.5z M434.2,140.7
	l-51-29.5c-8.3-4.8-18.6-4.8-26.9,0l-51,29.5c-3.7,2.1-6,5.9-6.3,10.1c0,0.3-0.1,0.6-0.1,0.9v70.1c0,4.6,2.4,8.7,6.4,11l51,29.5
	c4,2.3,8.4,3.5,12.8,3.6c0.2,0,0.4,0,0.6,0c0.2,0,0.4,0,0.6,0c4.4-0.1,8.8-1.3,12.8-3.6l51-29.5c4-2.3,6.4-6.4,6.4-11v-70.1
	c0-0.3,0-0.6-0.1-0.9C440.3,146.6,438,142.8,434.2,140.7z M362.3,248.4L314,220.5v-52.8l42.4,24.5c1.9,1.1,3.9,1.9,5.9,2.5V248.4z
	 M363.9,179.2l-47.6-27.5l47.6-27.5c3.7-2.1,8.2-2.1,11.9,0l47.6,27.5l-47.6,27.5C372.1,181.3,367.5,181.3,363.9,179.2z
	 M425.6,220.5l-48.3,27.9v-53.7c2-0.6,4-1.4,5.9-2.5l42.4-24.5L425.6,220.5L425.6,220.5z M99.6,268.1h71.2
	c3.1,9.1,11.7,15.6,21.9,15.6s18.7-6.5,21.9-15.6h13.5c4.1,0,7.5-3.4,7.5-7.5s-3.4-7.5-7.5-7.5h-13.5c-3.1-9.1-11.7-15.6-21.9-15.6
	s-18.7,6.5-21.9,15.6H99.6c-4.1,0-7.5,3.4-7.5,7.5S95.4,268.1,99.6,268.1z M192.6,252.5c4.5,0,8.1,3.6,8.1,8.1s-3.6,8.1-8.1,8.1
	c-4.5,0-8.1-3.6-8.1-8.1S188.1,252.5,192.6,252.5z"/>
</svg>
